<svg width="106" height="24" viewBox="0 0 106 24" fill="none" xmlns="http://www.w3.org/2000/svg">
<path d="M41.2403 6.8761H44.7131V20.308H41.2403V18.8156C40.408 20.0784 39.0591 20.6811 37.2509 20.6811C35.7872 20.6811 34.5818 20.1932 33.6059 19.2174C32.6588 18.2415 32.1709 16.8639 32.1709 15.1419V6.8761H35.6437V14.6827C35.6437 15.5724 35.8733 16.2612 36.3612 16.7491C36.8491 17.237 37.4805 17.4666 38.2841 17.4666C39.1739 17.4666 39.8914 17.1796 40.4367 16.6343C40.982 16.089 41.2403 15.2567 41.2403 14.1374V6.8761Z" fill="white"/>
<path d="M41.2403 6.8761H44.7131V20.308H41.2403V18.8156C40.408 20.0784 39.0591 20.6811 37.2509 20.6811C35.7872 20.6811 34.5818 20.1932 33.6059 19.2174C32.6588 18.2415 32.1709 16.8639 32.1709 15.1419V6.8761H35.6437V14.6827C35.6437 15.5724 35.8733 16.2612 36.3612 16.7491C36.8491 17.237 37.4805 17.4666 38.2841 17.4666C39.1739 17.4666 39.8914 17.1796 40.4367 16.6343C40.982 16.089 41.2403 15.2567 41.2403 14.1374V6.8761Z" fill="#2E2D31"/>
<path d="M48.5018 5.26899C47.9278 5.26899 47.4399 5.06809 47.0093 4.63758C46.5788 4.20707 46.3779 3.71916 46.3779 3.14515C46.3779 2.57114 46.5788 2.08322 47.0093 1.65272C47.4399 1.22221 47.9278 1.0213 48.5018 1.0213C49.1045 1.0213 49.5924 1.22221 50.0229 1.65272C50.4534 2.08322 50.6543 2.57114 50.6543 3.14515C50.6543 3.71916 50.4534 4.20707 50.0229 4.63758C49.5924 5.06809 49.1045 5.26899 48.5018 5.26899ZM46.7797 20.3081V6.87623H50.2525V20.3081H46.7797Z" fill="white"/>
<path d="M48.5018 5.26899C47.9278 5.26899 47.4399 5.06809 47.0093 4.63758C46.5788 4.20707 46.3779 3.71916 46.3779 3.14515C46.3779 2.57114 46.5788 2.08322 47.0093 1.65272C47.4399 1.22221 47.9278 1.0213 48.5018 1.0213C49.1045 1.0213 49.5924 1.22221 50.0229 1.65272C50.4534 2.08322 50.6543 2.57114 50.6543 3.14515C50.6543 3.71916 50.4534 4.20707 50.0229 4.63758C49.5924 5.06809 49.1045 5.26899 48.5018 5.26899ZM46.7797 20.3081V6.87623H50.2525V20.3081H46.7797Z" fill="#2E2D31"/>
<path d="M59.8088 6.50291C61.2726 6.50291 62.478 6.99082 63.4538 7.96664C64.4009 8.94247 64.8889 10.3201 64.8889 12.0421V20.2792H61.4161V12.5013C61.4161 11.6116 61.1865 10.9228 60.6986 10.4349C60.2107 9.94699 59.5792 9.71738 58.7756 9.71738C57.8859 9.71738 57.1684 10.0044 56.6231 10.5497C56.0778 11.095 55.8195 11.9273 55.8195 13.0467V20.2792H52.3467V1.509H55.8195V8.36845C56.6518 7.13433 57.972 6.50291 59.8088 6.50291Z" fill="white"/>
<path d="M59.8088 6.50291C61.2726 6.50291 62.478 6.99082 63.4538 7.96664C64.4009 8.94247 64.8889 10.3201 64.8889 12.0421V20.2792H61.4161V12.5013C61.4161 11.6116 61.1865 10.9228 60.6986 10.4349C60.2107 9.94699 59.5792 9.71738 58.7756 9.71738C57.8859 9.71738 57.1684 10.0044 56.6231 10.5497C56.0778 11.095 55.8195 11.9273 55.8195 13.0467V20.2792H52.3467V1.509H55.8195V8.36845C56.6518 7.13433 57.972 6.50291 59.8088 6.50291Z" fill="#2E2D31"/>
<path d="M75.5948 6.8761H79.0676V20.308H75.5948V18.8156C74.7625 20.0784 73.4135 20.6811 71.6054 20.6811C70.1417 20.6811 68.9362 20.1932 67.9604 19.2174C67.0133 18.2415 66.5254 16.8639 66.5254 15.1419V6.8761H69.9982V14.6827C69.9982 15.5724 70.2278 16.2612 70.7157 16.7491C71.2036 17.237 71.835 17.4666 72.6386 17.4666C73.5283 17.4666 74.2459 17.1796 74.7912 16.6343C75.3365 16.089 75.5948 15.2567 75.5948 14.1374V6.8761Z" fill="white"/>
<path d="M75.5948 6.8761H79.0676V20.308H75.5948V18.8156C74.7625 20.0784 73.4135 20.6811 71.6054 20.6811C70.1417 20.6811 68.9362 20.1932 67.9604 19.2174C67.0133 18.2415 66.5254 16.8639 66.5254 15.1419V6.8761H69.9982V14.6827C69.9982 15.5724 70.2278 16.2612 70.7157 16.7491C71.2036 17.237 71.835 17.4666 72.6386 17.4666C73.5283 17.4666 74.2459 17.1796 74.7912 16.6343C75.3365 16.089 75.5948 15.2567 75.5948 14.1374V6.8761Z" fill="#2E2D31"/>
<path d="M84.0899 14.9988C84.5491 16.6921 85.812 17.5244 87.8784 17.5244C89.1986 17.5244 90.2032 17.0652 90.892 16.1755L93.6759 17.7827C92.3557 19.7057 90.4041 20.6528 87.821 20.6528C85.611 20.6528 83.8316 19.9927 82.4827 18.6437C81.1337 17.2948 80.4736 15.6015 80.4736 13.5637C80.4736 11.5547 81.1337 9.86134 82.454 8.51241C83.7742 7.16349 85.4675 6.47467 87.5627 6.47467C89.543 6.47467 91.1503 7.16349 92.4418 8.51241C93.7333 9.86134 94.3647 11.5547 94.3647 13.5637C94.3647 14.0229 94.3073 14.4821 94.2212 14.9988H84.0899ZM84.0325 12.3296H90.8633C90.6624 11.4112 90.2605 10.7511 89.6291 10.2919C88.9977 9.83264 88.3089 9.63174 87.534 9.63174C86.6156 9.63174 85.8407 9.86135 85.2379 10.3493C84.6352 10.8085 84.2334 11.4686 84.0325 12.3296Z" fill="white"/>
<path d="M84.0899 14.9988C84.5491 16.6921 85.812 17.5244 87.8784 17.5244C89.1986 17.5244 90.2032 17.0652 90.892 16.1755L93.6759 17.7827C92.3557 19.7057 90.4041 20.6528 87.821 20.6528C85.611 20.6528 83.8316 19.9927 82.4827 18.6437C81.1337 17.2948 80.4736 15.6015 80.4736 13.5637C80.4736 11.5547 81.1337 9.86134 82.454 8.51241C83.7742 7.16349 85.4675 6.47467 87.5627 6.47467C89.543 6.47467 91.1503 7.16349 92.4418 8.51241C93.7333 9.86134 94.3647 11.5547 94.3647 13.5637C94.3647 14.0229 94.3073 14.4821 94.2212 14.9988H84.0899ZM84.0325 12.3296H90.8633C90.6624 11.4112 90.2605 10.7511 89.6291 10.2919C88.9977 9.83264 88.3089 9.63174 87.534 9.63174C86.6156 9.63174 85.8407 9.86135 85.2379 10.3493C84.6352 10.8085 84.2334 11.4686 84.0325 12.3296Z" fill="#2E2D31"/>
<path d="M98.3552 10.6933C98.3552 11.0377 98.5848 11.3534 99.0727 11.5543C99.5606 11.7839 100.135 11.9848 100.795 12.157C101.484 12.3292 102.144 12.5301 102.832 12.7884C103.521 13.0467 104.095 13.4772 104.555 14.0799C105.042 14.6827 105.272 15.4576 105.272 16.3473C105.272 17.7249 104.755 18.7868 103.722 19.5331C102.689 20.2793 101.397 20.6524 99.8763 20.6524C97.121 20.6524 95.2555 19.5905 94.251 17.4666L97.2645 15.7733C97.6664 16.95 98.5274 17.524 99.905 17.524C101.139 17.524 101.771 17.1509 101.771 16.376C101.771 16.0316 101.541 15.7159 101.053 15.515C100.565 15.2854 99.9911 15.0845 99.331 14.9123C98.6422 14.7401 97.9821 14.5105 97.2932 14.2521C96.6044 13.9938 96.0304 13.5633 95.5712 12.9893C95.0833 12.4153 94.8537 11.6691 94.8537 10.8081C94.8537 9.48784 95.3416 8.45462 96.3174 7.6797C97.2932 6.93349 98.4987 6.53168 99.9624 6.53168C101.053 6.53168 102.058 6.78998 102.947 7.27789C103.837 7.7658 104.555 8.48332 105.071 9.37304L102.115 10.9803C101.684 10.0619 100.967 9.60265 99.9624 9.60265C99.5032 9.60265 99.1301 9.68875 98.8431 9.88965C98.4987 10.0906 98.3552 10.3489 98.3552 10.6933Z" fill="white"/>
<path d="M98.3552 10.6933C98.3552 11.0377 98.5848 11.3534 99.0727 11.5543C99.5606 11.7839 100.135 11.9848 100.795 12.157C101.484 12.3292 102.144 12.5301 102.832 12.7884C103.521 13.0467 104.095 13.4772 104.555 14.0799C105.042 14.6827 105.272 15.4576 105.272 16.3473C105.272 17.7249 104.755 18.7868 103.722 19.5331C102.689 20.2793 101.397 20.6524 99.8763 20.6524C97.121 20.6524 95.2555 19.5905 94.251 17.4666L97.2645 15.7733C97.6664 16.95 98.5274 17.524 99.905 17.524C101.139 17.524 101.771 17.1509 101.771 16.376C101.771 16.0316 101.541 15.7159 101.053 15.515C100.565 15.2854 99.9911 15.0845 99.331 14.9123C98.6422 14.7401 97.9821 14.5105 97.2932 14.2521C96.6044 13.9938 96.0304 13.5633 95.5712 12.9893C95.0833 12.4153 94.8537 11.6691 94.8537 10.8081C94.8537 9.48784 95.3416 8.45462 96.3174 7.6797C97.2932 6.93349 98.4987 6.53168 99.9624 6.53168C101.053 6.53168 102.058 6.78998 102.947 7.27789C103.837 7.7658 104.555 8.48332 105.071 9.37304L102.115 10.9803C101.684 10.0619 100.967 9.60265 99.9624 9.60265C99.5032 9.60265 99.1301 9.68875 98.8431 9.88965C98.4987 10.0906 98.3552 10.3489 98.3552 10.6933Z" fill="#2E2D31"/>
<rect x="7.99902" width="16.0007" height="16.0007" fill="#EE408B"/>
<path d="M0 7.9993H16.0007V15.9997C16.0007 20.4181 12.4188 24 8.00035 24C3.58188 24 0 20.4181 0 15.9997V7.9993Z" fill="#00BDC9"/>
<rect x="7.99902" y="7.9993" width="8.00035" height="8.00035" fill="#134982"/>
<rect width="6.26115" height="6.26115" rx="3.13057" fill="url(#paint0_linear)"/>
<defs>
<linearGradient id="paint0_linear" x1="0.915306" y1="0.915306" x2="5.33468" y2="5.33468" gradientUnits="userSpaceOnUse">
<stop stop-color="#FBA919"/>
<stop offset="0.0318615" stop-color="#FBA419"/>
<stop offset="0.4948" stop-color="#F4601F"/>
<stop offset="0.8295" stop-color="#F03523"/>
<stop offset="1" stop-color="#EE2524"/>
</linearGradient>
</defs>
</svg>
