<svg width="25" height="25" viewBox="0 0 25 25" fill="none" xmlns="http://www.w3.org/2000/svg">
<path d="M20.9873 9.48242H11.9873C10.8827 9.48242 9.9873 10.3779 9.9873 11.4824V20.4824C9.9873 21.587 10.8827 22.4824 11.9873 22.4824H20.9873C22.0919 22.4824 22.9873 21.587 22.9873 20.4824V11.4824C22.9873 10.3779 22.0919 9.48242 20.9873 9.48242Z" stroke-width="2" stroke-linecap="round" stroke-linejoin="round"/>
<path d="M5.9873 15.4824H4.9873C4.45687 15.4824 3.94816 15.2717 3.57309 14.8966C3.19802 14.5216 2.9873 14.0129 2.9873 13.4824V4.48242C2.9873 3.95199 3.19802 3.44328 3.57309 3.06821C3.94816 2.69314 4.45687 2.48242 4.9873 2.48242H13.9873C14.5177 2.48242 15.0264 2.69314 15.4015 3.06821C15.7766 3.44328 15.9873 3.95199 15.9873 4.48242V5.48242" stroke-width="2" stroke-linecap="round" stroke-linejoin="round"/>
</svg>
