<svg width="205" height="48" viewBox="0 0 205 48" fill="none" xmlns="http://www.w3.org/2000/svg">
<mask id="mask0" mask-type="alpha" maskUnits="userSpaceOnUse" x="0" y="0" width="205" height="48">
<path d="M10.0553 16.4427L0 17.581V18.5296L1.86561 19.0988C3.57312 19.668 3.79447 20.0158 3.79447 21.6917V38.2609C3.79447 44.8063 8.06324 47.9368 14.0711 47.9368C18.6877 47.9368 22.3241 45.6285 24.0632 42.3083V47.6522L34.0553 46.4822V45.5336L32.2213 44.996C30.4822 44.4269 30.2609 44.079 30.2609 42.3715V16.4427L20.2055 17.581V18.5296L22.0711 19.0988C23.8103 19.668 24.0316 20.0158 24.0316 21.6917V41.2648C22.7036 43.4783 20.3004 44.996 17.1383 44.996C12.585 44.996 10.0553 42.3399 10.0553 36.9644V16.4427Z" fill="black"/>
<path d="M43.6123 10.498C45.5412 10.498 47.0906 8.98024 47.0906 7.083C47.0906 5.18577 45.5412 3.69961 43.6123 3.69961C41.6835 3.69961 40.1341 5.18577 40.1341 7.083C40.1341 8.98024 41.6835 10.498 43.6123 10.498ZM47.3119 16.4427L37.2566 17.581V18.5296L39.1222 19.0988C40.8613 19.668 41.0827 20.0158 41.0827 21.6917V43.0672C41.0827 45.249 40.5451 45.7866 37.2566 46.2925V47.3676H51.138V46.2925C47.8495 45.7866 47.3119 45.249 47.3119 43.0672V16.4427Z" fill="black"/>
<path d="M68.284 0L54.2444 1.70751V3.16206L55.8571 3.69961C57.6278 4.3004 57.8808 4.74308 57.8808 6.79842V42.3399C57.8808 44.6166 57.3116 45.2806 54.2444 45.8182V47.3676H71.446V45.8182C68.695 45.3123 68.284 44.7431 68.284 42.5296V22.6403C69.2326 20.8696 71.2247 19.668 73.8176 19.668C77.3907 19.668 79.4776 21.7866 79.4776 26.0237V42.5296C79.4776 44.7431 79.0033 45.3439 76.3156 45.8182V47.3676H93.5172V45.8182C90.3867 45.2806 89.8492 44.6166 89.8492 42.3399V25.4229C89.8492 18.5929 85.5172 15.336 79.0982 15.336C73.7543 15.336 69.865 17.7708 68.2207 21.3439L68.284 0Z" fill="black"/>
<path d="M107.219 15.5257L93.1794 17.2332V18.6877L94.8237 19.1937C96.5628 19.7945 96.8158 20.2372 96.8158 22.2925V37.8182C96.8158 44.7115 101.053 48 107.251 48C112.594 48 116.452 45.5336 118.065 41.9289V47.747L132.009 46.1976V44.7431L130.397 44.2688C128.626 43.6364 128.405 43.1937 128.405 41.1383V15.5257L114.334 17.2332V18.6877L115.978 19.1937C117.749 19.7945 118.002 20.2372 118.002 22.2925V40.7273C117.053 42.4348 115.156 43.6364 112.721 43.6364C109.179 43.6364 107.219 41.5178 107.219 37.249V15.5257Z" fill="black"/>
<path d="M133.221 31.7154C133.221 41.7708 140.652 48 150.075 48C155.956 48 160.763 45.8814 163.071 42.4032L163.039 40.8538C161.458 42.4664 158.802 43.6364 155.703 43.6364C149.348 43.6364 144.699 38.9881 143.846 30.7668H163.482C163.545 30.2292 163.64 29.4071 163.64 28.585C163.64 20.7431 158.391 15.336 149.632 15.336C139.767 15.336 133.221 22.1028 133.221 31.7154ZM143.719 27.9842C143.719 21.2174 145.869 17.4229 149.632 17.4229C152.984 17.4229 154.502 21.0277 154.502 26.6561C154.502 27.5731 154.502 28.2372 154.47 28.8379L143.719 28.9644C143.719 28.6482 143.719 28.3004 143.719 27.9842Z" fill="black"/>
<path d="M166.117 25.6443C166.117 30.7036 169.69 33.6759 175.54 35.4466L178.196 36.2372C181.99 37.4071 183.54 38.8617 183.54 41.3597C183.54 44.0158 181.358 45.8814 177.5 45.8814C172.472 45.8814 168.551 42.3715 167.287 37.2806H165.8L166.117 45.3755C168.741 46.8617 173.105 47.9684 177.69 47.9684C186.164 47.9684 192.299 44.0474 192.299 37.4704C192.299 32.2213 189.168 29.0909 183.034 27.2253L180.378 26.4348C176.71 25.3281 174.876 24.0632 174.876 21.6285C174.876 19.0988 176.994 17.4229 180.567 17.4229C184.678 17.4229 187.808 19.9209 188.884 24.5692H190.37L190.243 17.2648C188.536 16.2846 184.868 15.3676 180.441 15.3676C171.461 15.3676 166.117 19.3834 166.117 25.6443Z" fill="black"/>
<path d="M199.36 48C202.364 48 204.799 45.5336 204.799 42.5613C204.799 39.5889 202.364 37.1541 199.36 37.1541C196.388 37.1541 193.953 39.5889 193.953 42.5613C193.953 45.5336 196.388 48 199.36 48Z" fill="black"/>
</mask>
<g mask="url(#mask0)">
<path d="M10.0553 16.4427L0 17.581V18.5296L1.86561 19.0988C3.57312 19.668 3.79447 20.0158 3.79447 21.6917V38.2609C3.79447 44.8063 8.06324 47.9368 14.0711 47.9368C18.6877 47.9368 22.3241 45.6285 24.0632 42.3083V47.6522L34.0553 46.4822V45.5336L32.2213 44.996C30.4822 44.4269 30.2609 44.079 30.2609 42.3715V16.4427L20.2055 17.581V18.5296L22.0711 19.0988C23.8103 19.668 24.0316 20.0158 24.0316 21.6917V41.2648C22.7036 43.4783 20.3004 44.996 17.1383 44.996C12.585 44.996 10.0553 42.3399 10.0553 36.9644V16.4427Z" fill="#DA325A"/>
<path d="M43.6123 10.498C45.5412 10.498 47.0906 8.98024 47.0906 7.083C47.0906 5.18577 45.5412 3.69961 43.6123 3.69961C41.6835 3.69961 40.1341 5.18577 40.1341 7.083C40.1341 8.98024 41.6835 10.498 43.6123 10.498ZM47.3119 16.4427L37.2566 17.581V18.5296L39.1222 19.0988C40.8613 19.668 41.0827 20.0158 41.0827 21.6917V43.0672C41.0827 45.249 40.5451 45.7866 37.2566 46.2925V47.3676H51.138V46.2925C47.8495 45.7866 47.3119 45.249 47.3119 43.0672V16.4427Z" fill="#DA325A"/>
<path d="M68.284 0L54.2444 1.70751V3.16206L55.8571 3.69961C57.6278 4.3004 57.8808 4.74308 57.8808 6.79842V42.3399C57.8808 44.6166 57.3116 45.2806 54.2444 45.8182V47.3676H71.446V45.8182C68.695 45.3123 68.284 44.7431 68.284 42.5296V22.6403C69.2326 20.8696 71.2247 19.668 73.8176 19.668C77.3907 19.668 79.4776 21.7866 79.4776 26.0237V42.5296C79.4776 44.7431 79.0033 45.3439 76.3156 45.8182V47.3676H93.5172V45.8182C90.3867 45.2806 89.8492 44.6166 89.8492 42.3399V25.4229C89.8492 18.5929 85.5172 15.336 79.0982 15.336C73.7543 15.336 69.865 17.7708 68.2207 21.3439L68.284 0Z" fill="#DA325A"/>
<path d="M107.219 15.5257L93.1794 17.2332V18.6877L94.8237 19.1937C96.5628 19.7945 96.8158 20.2372 96.8158 22.2925V37.8182C96.8158 44.7115 101.053 48 107.251 48C112.594 48 116.452 45.5336 118.065 41.9289V47.747L132.009 46.1976V44.7431L130.397 44.2688C128.626 43.6364 128.405 43.1937 128.405 41.1383V15.5257L114.334 17.2332V18.6877L115.978 19.1937C117.749 19.7945 118.002 20.2372 118.002 22.2925V40.7273C117.053 42.4348 115.156 43.6364 112.721 43.6364C109.179 43.6364 107.219 41.5178 107.219 37.249V15.5257Z" fill="#DA325A"/>
<path d="M133.221 31.7154C133.221 41.7708 140.652 48 150.075 48C155.956 48 160.763 45.8814 163.071 42.4032L163.039 40.8538C161.458 42.4664 158.802 43.6364 155.703 43.6364C149.348 43.6364 144.699 38.9881 143.846 30.7668H163.482C163.545 30.2292 163.64 29.4071 163.64 28.585C163.64 20.7431 158.391 15.336 149.632 15.336C139.767 15.336 133.221 22.1028 133.221 31.7154ZM143.719 27.9842C143.719 21.2174 145.869 17.4229 149.632 17.4229C152.984 17.4229 154.502 21.0277 154.502 26.6561C154.502 27.5731 154.502 28.2372 154.47 28.8379L143.719 28.9644C143.719 28.6482 143.719 28.3004 143.719 27.9842Z" fill="#DA325A"/>
<path d="M166.117 25.6443C166.117 30.7036 169.69 33.6759 175.54 35.4466L178.196 36.2372C181.99 37.4071 183.54 38.8617 183.54 41.3597C183.54 44.0158 181.358 45.8814 177.5 45.8814C172.472 45.8814 168.551 42.3715 167.287 37.2806H165.8L166.117 45.3755C168.741 46.8617 173.105 47.9684 177.69 47.9684C186.164 47.9684 192.299 44.0474 192.299 37.4704C192.299 32.2213 189.168 29.0909 183.034 27.2253L180.378 26.4348C176.71 25.3281 174.876 24.0632 174.876 21.6285C174.876 19.0988 176.994 17.4229 180.567 17.4229C184.678 17.4229 187.808 19.9209 188.884 24.5692H190.37L190.243 17.2648C188.536 16.2846 184.868 15.3676 180.441 15.3676C171.461 15.3676 166.117 19.3834 166.117 25.6443Z" fill="#DA325A"/>
<path d="M199.36 48C202.364 48 204.799 45.5336 204.799 42.5613C204.799 39.5889 202.364 37.1541 199.36 37.1541C196.388 37.1541 193.953 39.5889 193.953 42.5613C193.953 45.5336 196.388 48 199.36 48Z" fill="#DA325A"/>
<rect x="28.8356" y="-33.8706" width="42.1376" height="95.6756" transform="rotate(30.1337 28.8356 -33.8706)" fill="#D93E51"/>
<rect x="72.1768" y="-21.1548" width="42.1376" height="84.2158" transform="rotate(30.1337 72.1768 -21.1548)" fill="#FFB72D"/>
<rect x="118.239" y="-17.6201" width="42.1376" height="87.7243" transform="rotate(30.1337 118.239 -17.6201)" fill="#3DD1FF"/>
<rect x="166.831" y="-17.3965" width="42.1376" height="91.0224" transform="rotate(30.1337 166.831 -17.3965)" fill="#354A98"/>
</g>
</svg>
